<svg width="20" height="20" viewBox="0 0 20 20" fill="none" xmlns="http://www.w3.org/2000/svg">
<g opacity="0.5" clip-path="url(#clip0_1310_432)">
<path d="M17 20H3C2.20489 19.9982 1.44285 19.6816 0.880625 19.1194C0.318397 18.5571 0.00176104 17.7951 0 17V5C0.00176104 4.20489 0.318397 3.44285 0.880625 2.88062C1.44285 2.3184 2.20489 2.00176 3 2H17C17.7951 2.00176 18.5571 2.3184 19.1194 2.88062C19.6816 3.44285 19.9982 4.20489 20 5V17C19.9982 17.7951 19.6816 18.5571 19.1194 19.1194C18.5571 19.6816 17.7951 19.9982 17 20ZM3 4C2.73478 4 2.48043 4.10536 2.29289 4.29289C2.10536 4.48043 2 4.73478 2 5V17C2 17.2652 2.10536 17.5196 2.29289 17.7071C2.48043 17.8946 2.73478 18 3 18H17C17.2652 18 17.5196 17.8946 17.7071 17.7071C17.8946 17.5196 18 17.2652 18 17V5C18 4.73478 17.8946 4.48043 17.7071 4.29289C17.5196 4.10536 17.2652 4 17 4H3Z" fill="#37516D"/>
<path d="M19.3333 6.66663H1.33325V8.66663H19.3333V6.66663Z" fill="#37516D"/>
<path d="M6 0H4V3.33333H6V0Z" fill="#37516D"/>
<path d="M16 0H14V3.33333H16V0Z" fill="#37516D"/>
</g>
<defs>
<clipPath id="clip0_1310_432">
<rect width="20" height="20" fill="white"/>
</clipPath>
</defs>
</svg>
