<svg width="40" height="40" viewBox="0 0 40 40" fill="none" xmlns="http://www.w3.org/2000/svg">
<g opacity="0.5" clip-path="url(#clip0_1153_1918)">
<path d="M23.653 30H14.329C13.1814 29.9982 12.0813 29.5411 11.2699 28.7288C10.4584 27.9166 10.0018 26.8154 10 25.6667V14.3333C10.0018 13.1846 10.4584 12.0834 11.2699 11.2712C12.0813 10.4589 13.1814 10.0018 14.329 10H23.653V12H14.329C13.7108 12 13.1179 12.2458 12.6807 12.6834C12.2436 13.121 11.998 13.7145 11.998 14.3333V25.6667C11.998 26.2855 12.2436 26.879 12.6807 27.3166C13.1179 27.7542 13.7108 28 14.329 28H23.653V30Z" fill="#37516D"/>
<path d="M24.1392 25.8L22.7273 24.3867L27.1762 19.94L22.7273 15.4867L24.1392 14.0733L30 19.94L24.1392 25.8Z" fill="#37516D"/>
<path d="M28.5881 18.94H17.1995V20.94H28.5881V18.94Z" fill="#37516D"/>
</g>
<defs>
<clipPath id="clip0_1153_1918">
<rect width="20" height="20" fill="white" transform="translate(10 10)"/>
</clipPath>
</defs>
</svg>
