<svg width="24" height="15" viewBox="0 0 24 15" fill="none" xmlns="http://www.w3.org/2000/svg">
<g opacity="0.5" clip-path="url(#clip0_7_4043)">
<path d="M11.9959 14.9926C9.59885 14.9967 7.24566 14.355 5.18753 13.136C3.1294 11.917 1.4436 10.1665 0.310098 8.07135L0 7.49661L0.310098 6.92187C1.44742 4.83006 3.13416 3.08252 5.19148 1.8645C7.2488 0.646485 9.60004 0.00338745 11.9959 0.00338745C14.3918 0.00338745 16.743 0.646485 18.8004 1.8645C20.8577 3.08252 22.5444 4.83006 23.6817 6.92187L23.9918 7.49661L23.6817 8.07135C22.5462 10.1648 20.8599 11.9139 18.8022 13.1326C16.7446 14.3513 14.3924 14.994 11.9959 14.9926ZM2.79905 7.49661C3.77104 9.04768 5.12564 10.3273 6.73487 11.2146C8.3441 12.1019 10.1548 12.5675 11.9959 12.5675C13.837 12.5675 15.6477 12.1019 17.257 11.2146C18.8662 10.3273 20.2208 9.04768 21.1928 7.49661C20.2208 5.94553 18.8662 4.6659 17.257 3.77861C15.6477 2.89132 13.837 2.42568 11.9959 2.42568C10.1548 2.42568 8.3441 2.89132 6.73487 3.77861C5.12564 4.6659 3.77104 5.94553 2.79905 7.49661Z" fill="white"/>
<path d="M11.9959 11.1387C10.9468 11.1387 9.92128 10.8301 9.04899 10.2519C8.1767 9.67375 7.49683 8.85198 7.09536 7.89052C6.69389 6.92907 6.58884 5.87111 6.79351 4.85043C6.99818 3.82975 7.50337 2.8922 8.24519 2.15633C8.98701 1.42047 9.93215 0.919334 10.9611 0.716309C11.99 0.513284 13.0565 0.617484 14.0258 1.01573C14.995 1.41398 15.8234 2.08839 16.4063 2.95368C16.9891 3.81897 17.3002 4.83627 17.3002 5.87694C17.2981 7.27179 16.7385 8.60889 15.7442 9.59519C14.75 10.5815 13.402 11.1365 11.9959 11.1387ZM11.9959 3.0437C11.431 3.0437 10.8788 3.20987 10.4091 3.52119C9.93941 3.83251 9.57333 4.275 9.35715 4.79271C9.14098 5.31042 9.08441 5.88009 9.19462 6.42968C9.30482 6.97928 9.57685 7.48411 9.97629 7.88035C10.3757 8.27659 10.8847 8.54643 11.4387 8.65575C11.9927 8.76507 12.567 8.70896 13.0889 8.49452C13.6108 8.28008 14.0569 7.91693 14.3707 7.45101C14.6846 6.98509 14.8521 6.43731 14.8521 5.87694C14.8521 5.12552 14.5512 4.40487 14.0155 3.87354C13.4799 3.3422 12.7534 3.0437 11.9959 3.0437Z" fill="white"/>
</g>
<defs>
<clipPath id="clip0_7_4043">
<rect width="24" height="15" fill="white"/>
</clipPath>
</defs>
</svg>
