<svg width="24" height="24" viewBox="0 0 24 24" fill="none" xmlns="http://www.w3.org/2000/svg">
<g clip-path="url(#clip0_7_4039)">
<path d="M20.4 24H3.6C2.64587 23.9979 1.73142 23.6179 1.05675 22.9432C0.382076 22.2686 0.00211325 21.3541 0 20.4V12C0.00211325 11.0459 0.382076 10.1314 1.05675 9.45674C1.73142 8.78207 2.64587 8.40211 3.6 8.39999H20.4C21.3541 8.40211 22.2686 8.78207 22.9433 9.45674C23.6179 10.1314 23.9979 11.0459 24 12V20.4C23.9979 21.3541 23.6179 22.2686 22.9433 22.9432C22.2686 23.6179 21.3541 23.9979 20.4 24ZM3.6 10.8C3.28174 10.8 2.97652 10.9264 2.75147 11.1515C2.52643 11.3765 2.4 11.6817 2.4 12V20.4C2.4 20.7183 2.52643 21.0235 2.75147 21.2485C2.97652 21.4736 3.28174 21.6 3.6 21.6H20.4C20.7183 21.6 21.0235 21.4736 21.2485 21.2485C21.4736 21.0235 21.6 20.7183 21.6 20.4V12C21.6 11.6817 21.4736 11.3765 21.2485 11.1515C21.0235 10.9264 20.7183 10.8 20.4 10.8H3.6Z" fill="white" fill-opacity="0.5"/>
<path d="M19.2 6.8H16.8C16.8 5.63305 16.3364 4.51389 15.5112 3.68873C14.6861 2.86357 13.5669 2.4 12.4 2.4C11.233 2.4 10.1139 2.86357 9.28871 3.68873C8.46355 4.51389 7.99998 5.63305 7.99998 6.8H5.59998C5.59998 4.99653 6.3164 3.26692 7.59165 1.99167C8.8669 0.716427 10.5965 0 12.4 0C14.2034 0 15.9331 0.716427 17.2083 1.99167C18.4836 3.26692 19.2 4.99653 19.2 6.8Z" fill="white" fill-opacity="0.5"/>
<path d="M12.4 20C11.688 20 10.992 19.7889 10.3999 19.3933C9.80792 18.9977 9.3465 18.4355 9.07402 17.7776C8.80155 17.1198 8.73026 16.396 8.86916 15.6977C9.00807 14.9993 9.35094 14.3579 9.85441 13.8544C10.3579 13.3509 10.9993 13.0081 11.6977 12.8692C12.396 12.7303 13.1198 12.8015 13.7776 13.074C14.4355 13.3465 14.9977 13.8079 15.3933 14.3999C15.7889 14.992 16 15.688 16 16.4C15.9979 17.3541 15.6179 18.2686 14.9432 18.9432C14.2686 19.6179 13.3541 19.9979 12.4 20ZM12.4 15.2C12.1627 15.2 11.9306 15.2704 11.7333 15.4022C11.536 15.5341 11.3822 15.7215 11.2913 15.9408C11.2005 16.16 11.1767 16.4013 11.223 16.6341C11.2693 16.8669 11.3836 17.0807 11.5515 17.2485C11.7193 17.4163 11.9331 17.5306 12.1659 17.5769C12.3987 17.6232 12.6399 17.5995 12.8592 17.5086C13.0785 17.4178 13.2659 17.264 13.3978 17.0667C13.5296 16.8693 13.6 16.6373 13.6 16.4C13.6 16.0817 13.4736 15.7765 13.2485 15.5515C13.0235 15.3264 12.7182 15.2 12.4 15.2Z" fill="white" fill-opacity="0.5"/>
</g>
<defs>
<clipPath id="clip0_7_4039">
<rect width="24" height="24" fill="white"/>
</clipPath>
</defs>
</svg>
