<svg width="24" height="24" viewBox="0 0 24 24" fill="none" xmlns="http://www.w3.org/2000/svg">
<g opacity="0.5" clip-path="url(#clip0_7_4036)">
<path d="M12 13.6C10.6551 13.6 9.34039 13.2012 8.22214 12.454C7.10388 11.7068 6.23231 10.6448 5.71763 9.40225C5.20296 8.15971 5.0683 6.79246 5.33068 5.47339C5.59305 4.15432 6.24069 2.94267 7.19169 1.99168C8.14269 1.04068 9.35433 0.393043 10.6734 0.130663C11.9925 -0.131716 13.3597 0.00294633 14.6023 0.517622C15.8448 1.0323 16.9068 1.90387 17.654 3.02212C18.4012 4.14038 18.8 5.45509 18.8 6.8C18.7979 8.60283 18.0808 10.3312 16.806 11.606C15.5312 12.8808 13.8028 13.5979 12 13.6ZM12 2.4C11.1298 2.4 10.2791 2.65806 9.55551 3.14154C8.83193 3.62501 8.26797 4.3122 7.93495 5.1162C7.60192 5.92019 7.51479 6.80488 7.68456 7.6584C7.85434 8.51192 8.27339 9.29592 8.88875 9.91127C9.5041 10.5266 10.2881 10.9457 11.1416 11.1155C11.9951 11.2852 12.8798 11.1981 13.6838 10.8651C14.4878 10.532 15.175 9.96809 15.6585 9.24451C16.142 8.52094 16.4 7.67024 16.4 6.8C16.3979 5.6337 15.9337 4.51577 15.1089 3.69107C14.2842 2.86637 13.1663 2.40212 12 2.4Z" fill="white"/>
<path d="M24 24H21.6V23.2C21.6 20.6539 20.5886 18.2121 18.7882 16.4118C16.9879 14.6114 14.5461 13.6 12 13.6C9.45392 13.6 7.01212 14.6114 5.21178 16.4118C3.41143 18.2121 2.4 20.6539 2.4 23.2V24H0V23.2C0 20.0174 1.26428 16.9652 3.51472 14.7147C5.76516 12.4643 8.8174 11.2 12 11.2C15.1826 11.2 18.2348 12.4643 20.4853 14.7147C22.7357 16.9652 24 20.0174 24 23.2V24Z" fill="white"/>
</g>
<defs>
<clipPath id="clip0_7_4036">
<rect width="24" height="24" fill="white"/>
</clipPath>
</defs>
</svg>
