<svg width="40" height="40" viewBox="0 0 40 40" fill="none" xmlns="http://www.w3.org/2000/svg">
<g opacity="0.5" clip-path="url(#clip0_1173_1923)">
<path d="M19.9999 21.3333C18.8792 21.3333 17.7836 21.001 16.8517 20.3783C15.9198 19.7557 15.1935 18.8707 14.7646 17.8352C14.3357 16.7998 14.2235 15.6604 14.4421 14.5612C14.6608 13.4619 15.2005 12.4522 15.993 11.6597C16.7855 10.8672 17.7952 10.3275 18.8944 10.1089C19.9936 9.89024 21.133 10.0025 22.1685 10.4314C23.2039 10.8602 24.0889 11.5866 24.7116 12.5184C25.3342 13.4503 25.6666 14.5459 25.6666 15.6667C25.6648 17.169 25.0672 18.6093 24.0049 19.6717C22.9426 20.734 21.5023 21.3316 19.9999 21.3333ZM19.9999 12C19.2747 12 18.5658 12.215 17.9628 12.6179C17.3599 13.0208 16.8899 13.5935 16.6124 14.2635C16.3348 14.9335 16.2622 15.6707 16.4037 16.382C16.5452 17.0933 16.8944 17.7466 17.4072 18.2594C17.92 18.7722 18.5733 19.1214 19.2846 19.2629C19.9959 19.4044 20.7331 19.3317 21.4031 19.0542C22.0731 18.7767 22.6457 18.3067 23.0486 17.7038C23.4515 17.1008 23.6666 16.3919 23.6666 15.6667C23.6648 14.6948 23.278 13.7631 22.5907 13.0759C21.9034 12.3886 20.9718 12.0018 19.9999 12Z" fill="#37516D"/>
<path d="M30 30H28V29.3333C28 27.2116 27.1571 25.1768 25.6569 23.6765C24.1566 22.1762 22.1217 21.3333 20 21.3333C17.8783 21.3333 15.8434 22.1762 14.3431 23.6765C12.8429 25.1768 12 27.2116 12 29.3333V30H10V29.3333C10 26.6812 11.0536 24.1376 12.9289 22.2623C14.8043 20.3869 17.3478 19.3333 20 19.3333C22.6522 19.3333 25.1957 20.3869 27.0711 22.2623C28.9464 24.1376 30 26.6812 30 29.3333V30Z" fill="#37516D"/>
</g>
<defs>
<clipPath id="clip0_1173_1923">
<rect width="20" height="20" fill="white" transform="translate(10 10)"/>
</clipPath>
</defs>
</svg>
