<svg width="5" height="22" viewBox="0 0 5 22" fill="none" xmlns="http://www.w3.org/2000/svg">
<path opacity="0.1" fill-rule="evenodd" clip-rule="evenodd" d="M3 4.33334C3 3.54391 2.64931 2.66075 1.75671 1.66897L3.24329 0.331039C4.35069 1.56148 5 2.90054 5 4.33334C5 5.76613 4.35069 7.10519 3.24329 8.33564C2.35069 9.32741 2 10.2106 2 11C2 11.7894 2.35069 12.6726 3.24329 13.6644C4.35069 14.8948 5 16.2339 5 17.6667C5 19.0995 4.35069 20.4385 3.24329 21.669L1.75671 20.331C2.64931 19.3393 3 18.4561 3 17.6667C3 16.8772 2.64931 15.9941 1.75671 15.0023C0.649308 13.7719 4.2469e-07 12.4328 4.87319e-07 11C5.49949e-07 9.56721 0.649308 8.22815 1.75671 6.99771C2.64931 6.00593 3 5.12276 3 4.33334Z" fill="black"/>
</svg>
