<svg width="158" height="13" viewBox="0 0 158 13" fill="none" xmlns="http://www.w3.org/2000/svg">
<path d="M3 6.5C8.06667 3.16667 13.1333 3.16667 18.2 6.5C23.2667 9.83333 28.3333 9.83333 33.4 6.5C38.4667 3.16667 43.5333 3.16667 48.6 6.5C53.6667 9.83333 58.7333 9.83333 63.8 6.5C68.8667 3.16667 73.9333 3.16667 79 6.5C84.0667 9.83333 89.1333 9.83333 94.2 6.5C99.2667 3.16667 104.333 3.16667 109.4 6.5C114.467 9.83333 119.533 9.83333 124.6 6.5C129.667 3.16667 134.733 3.16667 139.8 6.5C144.867 9.83333 149.933 9.83333 155 6.5" stroke="#0DA1E0" stroke-width="8"/>
</svg>
