<svg width="40" height="40" viewBox="0 0 40 40" fill="none" xmlns="http://www.w3.org/2000/svg">
<g opacity="0.5" clip-path="url(#clip0_1153_1927)">
<path d="M13.9661 25.5267L15.9319 22.6667L14.048 19.9133H15.8773L16.8944 21.4933L17.9183 19.9133H19.6999L17.8159 22.6667L19.7818 25.5267H17.9524L16.8261 23.84L15.7272 25.5267H13.9661Z" fill="#37516D"/>
<path d="M20.3823 25.5268V19.9268H21.9659V24.1668H24.7441V25.5001L20.3823 25.5268Z" fill="#37516D"/>
<path d="M25.0171 24.6667L25.9045 23.64C26.4269 24.0678 27.0862 24.3036 27.7679 24.3067C27.9357 24.3158 28.103 24.2813 28.2526 24.2067C28.305 24.1743 28.3477 24.1288 28.3761 24.0749C28.4045 24.021 28.4176 23.9607 28.4142 23.9002C28.4107 23.8397 28.3907 23.7812 28.3563 23.7307C28.3219 23.6803 28.2743 23.6398 28.2185 23.6133C27.975 23.5021 27.7181 23.4215 27.4539 23.3733L26.9488 23.2467C26.7935 23.2093 26.6408 23.1626 26.4915 23.1067C26.3516 23.0542 26.2149 22.9941 26.0819 22.9267C25.9665 22.8601 25.8569 22.7843 25.7543 22.7C25.6536 22.6196 25.5681 22.5226 25.5017 22.4133C25.4332 22.3007 25.3804 22.1796 25.3447 22.0533C25.3029 21.9057 25.2822 21.7532 25.2833 21.6C25.2766 21.3534 25.3279 21.1086 25.4332 20.8844C25.5385 20.6602 25.695 20.4625 25.8908 20.3067C26.3525 19.9535 26.9297 19.7758 27.5154 19.8067C28.3646 19.7782 29.1974 20.0399 29.8703 20.5467L29.0444 21.6733C28.5855 21.3281 28.0262 21.1343 27.4471 21.12C27.2956 21.1078 27.1443 21.1453 27.0171 21.2267C26.9718 21.2559 26.9344 21.2954 26.9083 21.3419C26.8821 21.3883 26.8679 21.4403 26.8669 21.4933C26.8669 21.5575 26.8855 21.6203 26.9206 21.6746C26.9556 21.7288 27.0056 21.7723 27.0649 21.8C27.319 21.908 27.5846 21.9885 27.8567 22.04C28.1632 22.0988 28.4645 22.1813 28.7577 22.2867C29.0009 22.3672 29.2308 22.4817 29.4403 22.6267C29.6279 22.7506 29.7787 22.9208 29.8772 23.12C29.9751 23.329 30.024 23.5568 30.0205 23.7867C30.0301 24.0414 29.9783 24.2948 29.8692 24.5264C29.7601 24.758 29.5968 24.9614 29.3925 25.12C28.8989 25.4607 28.3036 25.6319 27.6997 25.6067C27.1978 25.6095 26.6991 25.5283 26.2253 25.3667C25.7772 25.2177 25.3658 24.9793 25.0171 24.6667Z" fill="#37516D"/>
<path d="M24.3823 30H13.024C12.2159 29.993 11.4437 29.6731 10.8768 29.1107C10.3099 28.5483 9.99461 27.7892 10.0001 27V13C9.99461 12.2108 10.3099 11.4517 10.8768 10.8893C11.4437 10.3269 12.2159 10.007 13.024 10H20.8465C21.2556 10.0005 21.6605 10.0804 22.0378 10.2349C22.4151 10.3894 22.7573 10.6154 23.0444 10.9L26.5325 14.3867C27.0933 14.9457 27.407 15.6974 27.4062 16.48V18.6667H25.3584V16.48C25.3522 16.2291 25.2471 15.9903 25.0649 15.8133L21.6042 12.3C21.506 12.2015 21.388 12.124 21.2575 12.0724C21.1271 12.0207 20.9872 11.9961 20.8465 12H13.024C12.759 12.007 12.5077 12.1161 12.3248 12.3034C12.1419 12.4908 12.0423 12.7412 12.0479 13V27C12.0423 27.2588 12.1419 27.5092 12.3248 27.6966C12.5077 27.8839 12.759 27.993 13.024 28H24.3823C24.5371 27.9994 24.6894 27.962 24.8262 27.8912C24.9629 27.8204 25.08 27.7181 25.1673 27.5933C25.2911 27.419 25.3578 27.2121 25.3584 27H27.4062C27.4072 27.6275 27.2093 28.24 26.8397 28.7533C26.5605 29.1365 26.1922 29.4493 25.7649 29.6661C25.3377 29.8828 24.8638 29.9973 24.3823 30Z" fill="#37516D"/>
</g>
<defs>
<clipPath id="clip0_1153_1927">
<rect width="20" height="20" fill="white" transform="translate(10 10)"/>
</clipPath>
</defs>
</svg>
